<svg xmlns="http://www.w3.org/2000/svg" width="1200" height="740" viewBox="0 0 1200 740" role="img"><title>Linux 工作电脑</title><desc>Product illustration with example content, not an application screenshot.</desc><g font-family="Inter,Segoe UI,Arial,Microsoft YaHei,Noto Sans CJK SC,sans-serif"><rect x="22" y="22" width="1156" height="696" rx="20" fill="#edf1f8" stroke="#dce2ed"/><rect x="22" y="22" width="1156" height="60" rx="20" fill="#fff" stroke="none"/><text x="53" y="62" fill="#535c73" font-size="23" font-weight="550">Linux 工作电脑</text><text x="1050" y="61" fill="#8591a4" font-size="15" font-weight="400">Linux VM</text><rect x="60" y="119" width="393" height="477" rx="12" fill="#fff" stroke="#dce1eb"/><text x="85" y="156" fill="#6a7287" font-size="20" font-weight="400">工作目录</text><path d="M60 177h393" stroke="#e5e5ed"/><rect x="79" y="200" width="354" height="44" rx="7" fill="#e9edf6" stroke="none"/><text x="98" y="229" fill="#66738c" font-size="20" font-weight="400">▱  research/</text><rect x="79" y="257" width="354" height="44" rx="7" fill="#fff" stroke="none"/><text x="98" y="286" fill="#66738c" font-size="20" font-weight="400">▤  sources.csv</text><rect x="79" y="314" width="354" height="44" rx="7" fill="#fff" stroke="none"/><text x="98" y="343" fill="#66738c" font-size="20" font-weight="400">▤  summary.md</text><rect x="79" y="371" width="354" height="44" rx="7" fill="#fff" stroke="none"/><text x="98" y="400" fill="#66738c" font-size="20" font-weight="400">▤  analysis.py</text><rect x="79" y="428" width="354" height="44" rx="7" fill="#fff" stroke="none"/><text x="98" y="457" fill="#66738c" font-size="20" font-weight="400">▤  comparison.xlsx</text><rect x="492" y="117" width="628" height="274" rx="12" fill="#fff" stroke="#dce1eb"/><text x="518" y="154" fill="#5d687d" font-size="20" font-weight="400">浏览器 · 收集来源</text><rect x="515" y="176" width="581" height="32" rx="7" fill="#f3f5f8" stroke="none"/><text x="530" y="198" fill="#9ca4b4" font-size="14" font-weight="400">https://example.org/research</text><rect x="519" y="232" width="420" height="9" rx="4" fill="#d9e1ed" stroke="none"/><rect x="519" y="251" width="555" height="6" rx="3" fill="#eef1f6" stroke="none"/><rect x="519" y="275" width="366" height="9" rx="4" fill="#d9e1ed" stroke="none"/><rect x="519" y="294" width="555" height="6" rx="3" fill="#eef1f6" stroke="none"/><rect x="519" y="318" width="312" height="9" rx="4" fill="#d9e1ed" stroke="none"/><rect x="519" y="337" width="555" height="6" rx="3" fill="#eef1f6" stroke="none"/><rect x="473" y="364" width="647" height="267" rx="12" fill="#272a3d" stroke="none"/><text x="500" y="401" fill="#b1bacd" font-size="18" font-weight="400">终端</text><path d="M474 416h644" stroke="#e5e5ed"/><text x="501" y="457" fill="#dce4f3" font-size="19" font-weight="400">$ python analysis.py --input sources.csv</text><text x="501" y="505" fill="#a3b0c8" font-size="16" font-weight="400">3 sources · 24 rows · 0 missing values</text><text x="501" y="548" fill="#a9d9bf" font-size="20" font-weight="400">✓ comparison.xlsx</text><text x="501" y="585" fill="#a9d9bf" font-size="20" font-weight="400">✓ summary.md</text><rect x="469" y="654" width="262" height="47" rx="13" fill="#ffffffbd" stroke="none"/><rect x="488" y="663" width="38" height="29" rx="7" fill="#d0ddeb" stroke="none"/><text x="499" y="684" fill="#67758b" font-size="17" font-weight="400">◎</text><rect x="549" y="663" width="38" height="29" rx="7" fill="#ded5ee" stroke="none"/><text x="560" y="684" fill="#67758b" font-size="17" font-weight="400">▱</text><rect x="610" y="663" width="38" height="29" rx="7" fill="#cce1d8" stroke="none"/><text x="621" y="684" fill="#67758b" font-size="17" font-weight="400">▤</text><rect x="671" y="663" width="38" height="29" rx="7" fill="#d6dcea" stroke="none"/><text x="682" y="684" fill="#67758b" font-size="17" font-weight="400">›</text></g></svg>
