<svg xmlns="http://www.w3.org/2000/svg" width="1200" height="740" viewBox="0 0 1200 740" fill="none" role="img"><title>看一看，改一改，變成你的作品。</title><desc>功能示意，使用示例内容，并非应用截图。</desc><g font-family="Inter, Segoe UI, Arial, Microsoft YaHei, Noto Sans CJK SC, sans-serif"><rect x="26" y="26" width="1148" height="688" rx="22" fill="#fff" stroke="#e2e2e9"/><rect x="26" y="26" width="232" height="688" rx="22" fill="#f5f5f8" stroke="none"/><rect x="240" y="26" width="18" height="688" rx="0" fill="#f5f5f8" stroke="none"/><text x="55" y="81" fill="#575562" font-size="21" font-weight="500">檔案</text><text x="55" y="147" fill="#282832" font-size="21" font-weight="400">⌄  launch</text><rect x="43" y="170" width="198" height="44" rx="9" fill="#e8e4f2" stroke="none"/><text x="70" y="199" fill="#282832" font-size="21" font-weight="400">index.html</text><text x="70" y="248" fill="#777582" font-size="21" font-weight="400">style.css</text><text x="70" y="293" fill="#777582" font-size="21" font-weight="400">notes.md</text><text x="290" y="77" fill="#3a3844" font-size="21" font-weight="500">預覽工作台</text><rect x="953" y="46" width="184" height="43" rx="12" fill="#f1f0f4" stroke="none"/><text x="974" y="74" fill="#282832" font-size="18" font-weight="400">預覽</text><text x="1063" y="74" fill="#8d8599" font-size="18" font-weight="400">編輯</text><path d="M258 108h916" stroke="#e4e4eb"/><rect x="291" y="138" width="848" height="320" rx="18" fill="#eeedf6" stroke="none"/><text x="337" y="211" fill="#353142" font-size="42" font-weight="550">下一個想法，</text><text x="337" y="265" fill="#7962a9" font-size="42" font-weight="550">就從這裡開始。</text><text x="337" y="309" fill="#777082" font-size="21" font-weight="400">給值得分享的事情，做一個小頁面。</text><rect x="336" y="347" width="215" height="54" rx="27" fill="#37313f" stroke="none"/><text x="359" y="381" fill="#fff" font-size="20" font-weight="400">看看這個想法</text><g transform="translate(922 231) scale(2)"><path d="M33 2C51 1 61 14 62 33C63 52 50 62 30 62C11 62 2 51 2 31C2 13 14 2 33 2Z" fill="#b5a3d8"/><ellipse cx="24" cy="29" rx="3" ry="6" fill="white" transform="rotate(-15 24 29)"/><ellipse cx="41" cy="27" rx="3" ry="6" fill="white" transform="rotate(-15 41 27)"/></g><text x="300" y="507" fill="#777180" font-size="19" font-weight="400">notes.md</text><text x="1070" y="507" fill="#6a8e7e" font-size="17" font-weight="400">已儲存</text><text x="302" y="552" fill="#b1a9bc" font-size="17" font-weight="400">1</text><text x="342" y="552" fill="#282832" font-size="22" font-weight="400">讓故事簡單一些。</text><text x="302" y="588" fill="#b1a9bc" font-size="17" font-weight="400">2</text><text x="342" y="588" fill="#282832" font-size="22" font-weight="400">從一個生活裡的瞬間開始。</text><text x="302" y="624" fill="#b1a9bc" font-size="17" font-weight="400">3</text><text x="342" y="624" fill="#282832" font-size="22" font-weight="400">留下一件可以試試的小事。</text><text x="301" y="682" fill="#8b8298" font-size="20" font-weight="400">看一看，改一改，變成你的作品。</text></g></svg>
